<?xml version="1.0" encoding="UTF-8"?>
<!DOCTYPE svg PUBLIC "-//W3C//DTD SVG 1.1//EN" "http://www.w3.org/Graphics/SVG/1.1/DTD/svg11.dtd">
<!-- Creator: CorelDRAW -->
<svg xmlns="http://www.w3.org/2000/svg" xml:space="preserve" width="48.8745mm" height="48.2317mm" version="1.1" style="shape-rendering:geometricPrecision; text-rendering:geometricPrecision; image-rendering:optimizeQuality; fill-rule:evenodd; clip-rule:evenodd"
viewBox="0 0 15686.55 15480.24"
 xmlns:xlink="http://www.w3.org/1999/xlink"
 xmlns:xodm="http://www.corel.com/coreldraw/odm/2003">
 <defs>
  <style type="text/css">
   <![CDATA[
    .fil1 {fill:#FD6D26}
    .fil0 {fill:#FDB763}
   ]]>
  </style>
 </defs>
 <g id="Layer_x0020_1">
  <metadata id="CorelCorpID_0Corel-Layer"/>
  <g id="_105553262742272">
   <path class="fil0" d="M69.94 10438.12l10353.39 0 0 -1798.67 1665.92 0 0 1868.6 0 320.44 0 4552.28c0,38.48 -31.45,69.94 -69.94,69.94l-11949.38 0c-38.48,0 -69.94,-31.45 -69.94,-69.94l0 -4872.72c0,-38.48 31.45,-69.94 69.94,-69.94zm1605.9 1710.15l8737.57 0c13.58,0 24.68,11.11 24.68,24.68l0 1719.84c0,13.58 -11.11,24.68 -24.68,24.68l-8737.57 0c-13.58,0 -24.68,-11.11 -24.68,-24.68l0 -1719.84c0,-13.58 11.11,-24.68 24.68,-24.68z"/>
   <path class="fil0" d="M15587.15 5136.67l-10353.49 0 0 1822.07 -1665.92 0 0 -1892.9 0 -324.61 0 -4611.43c0,-39 31.45,-70.87 69.94,-70.87l11949.47 0c38.48,0 69.94,31.87 69.94,70.87l0 4936.04c0,39 -31.45,70.83 -69.94,70.83zm-1605.9 -1732.36l-8737.67 0c-13.58,0 -24.68,-11.27 -24.68,-25l0 -1742.21c0,-13.74 11.11,-25 24.68,-25l8737.67 0c13.58,0 24.68,11.27 24.68,25l0 1742.21c0,13.74 -11.11,25 -24.68,25z"/>
   <polygon class="fil1" points="-0,0 1651.16,0 1651.16,6929.27 15657.09,6929.27 15657.09,6958.74 15686.55,6958.74 15686.55,15480.24 14022.85,15480.24 14022.85,8639.45 1651.16,8639.45 -0,8639.45 -0,6929.27 "/>
  </g>
 </g>
</svg>
